<?xml version="1.0" encoding="UTF-8"?>
<svg xmlns="http://www.w3.org/2000/svg" width="860" height="520" viewBox="0 0 860 520">
  <rect width="860" height="520" fill="white"/>
  <clipPath id="plotarea"><rect x="85" y="40" width="545" height="415"/></clipPath>
  <line x1="121.3" y1="40" x2="121.3" y2="455" stroke="#e0e0e0" stroke-width="1"/>
  <line x1="238.9" y1="40" x2="238.9" y2="455" stroke="#e0e0e0" stroke-width="1"/>
  <line x1="305.0" y1="40" x2="305.0" y2="455" stroke="#e0e0e0" stroke-width="1"/>
  <line x1="354.0" y1="40" x2="354.0" y2="455" stroke="#e0e0e0" stroke-width="1"/>
  <line x1="415.0" y1="40" x2="415.0" y2="455" stroke="#e0e0e0" stroke-width="1"/>
  <line x1="473.9" y1="40" x2="473.9" y2="455" stroke="#e0e0e0" stroke-width="1"/>
  <line x1="543.3" y1="40" x2="543.3" y2="455" stroke="#e0e0e0" stroke-width="1"/>
  <line x1="594.5" y1="40" x2="594.5" y2="455" stroke="#e0e0e0" stroke-width="1"/>
  <line x1="85" y1="455.0" x2="630" y2="455.0" stroke="#e0e0e0" stroke-width="1"/>
  <line x1="85" y1="372.0" x2="630" y2="372.0" stroke="#e0e0e0" stroke-width="1"/>
  <line x1="85" y1="289.0" x2="630" y2="289.0" stroke="#e0e0e0" stroke-width="1"/>
  <line x1="85" y1="206.0" x2="630" y2="206.0" stroke="#e0e0e0" stroke-width="1"/>
  <line x1="85" y1="123.0" x2="630" y2="123.0" stroke="#e0e0e0" stroke-width="1"/>
  <line x1="85" y1="40.0" x2="630" y2="40.0" stroke="#e0e0e0" stroke-width="1"/>
  <rect x="85" y="40" width="545" height="415" fill="none" stroke="#888" stroke-width="1.5"/>
  <line x1="121.3" y1="455" x2="121.3" y2="460" stroke="#888" stroke-width="1.5"/>
  <text x="121.3" y="473" text-anchor="middle" font-size="11" font-family="Arial,sans-serif" fill="#333">1.9</text>
  <line x1="238.9" y1="455" x2="238.9" y2="460" stroke="#888" stroke-width="1.5"/>
  <text x="238.9" y="473" text-anchor="middle" font-size="11" font-family="Arial,sans-serif" fill="#333">3.6</text>
  <line x1="305.0" y1="455" x2="305.0" y2="460" stroke="#888" stroke-width="1.5"/>
  <text x="305.0" y="473" text-anchor="middle" font-size="11" font-family="Arial,sans-serif" fill="#333">5.3</text>
  <line x1="354.0" y1="455" x2="354.0" y2="460" stroke="#888" stroke-width="1.5"/>
  <text x="354.0" y="473" text-anchor="middle" font-size="11" font-family="Arial,sans-serif" fill="#333">7.1</text>
  <line x1="415.0" y1="455" x2="415.0" y2="460" stroke="#888" stroke-width="1.5"/>
  <text x="415.0" y="473" text-anchor="middle" font-size="11" font-family="Arial,sans-serif" fill="#333">10.1</text>
  <line x1="473.9" y1="455" x2="473.9" y2="460" stroke="#888" stroke-width="1.5"/>
  <text x="473.9" y="473" text-anchor="middle" font-size="11" font-family="Arial,sans-serif" fill="#333">14.2</text>
  <line x1="543.3" y1="455" x2="543.3" y2="460" stroke="#888" stroke-width="1.5"/>
  <text x="543.3" y="473" text-anchor="middle" font-size="11" font-family="Arial,sans-serif" fill="#333">21.2</text>
  <line x1="594.5" y1="455" x2="594.5" y2="460" stroke="#888" stroke-width="1.5"/>
  <text x="594.5" y="473" text-anchor="middle" font-size="11" font-family="Arial,sans-serif" fill="#333">28.5</text>
  <line x1="80" y1="455.0" x2="85" y2="455.0" stroke="#888" stroke-width="1.5"/>
  <text x="77" y="459.0" text-anchor="end" font-size="11" font-family="Arial,sans-serif" fill="#333">0.001%</text>
  <line x1="80" y1="372.0" x2="85" y2="372.0" stroke="#888" stroke-width="1.5"/>
  <text x="77" y="376.0" text-anchor="end" font-size="11" font-family="Arial,sans-serif" fill="#333">0.01%</text>
  <line x1="80" y1="289.0" x2="85" y2="289.0" stroke="#888" stroke-width="1.5"/>
  <text x="77" y="293.0" text-anchor="end" font-size="11" font-family="Arial,sans-serif" fill="#333">0.1%</text>
  <line x1="80" y1="206.0" x2="85" y2="206.0" stroke="#888" stroke-width="1.5"/>
  <text x="77" y="210.0" text-anchor="end" font-size="11" font-family="Arial,sans-serif" fill="#333">1%</text>
  <line x1="80" y1="123.0" x2="85" y2="123.0" stroke="#888" stroke-width="1.5"/>
  <text x="77" y="127.0" text-anchor="end" font-size="11" font-family="Arial,sans-serif" fill="#333">10%</text>
  <line x1="80" y1="40.0" x2="85" y2="40.0" stroke="#888" stroke-width="1.5"/>
  <text x="77" y="44.0" text-anchor="end" font-size="11" font-family="Arial,sans-serif" fill="#333">100%</text>
  <text x="357.5" y="505" text-anchor="middle" font-size="13" font-family="Arial,sans-serif" fill="#222">f (MHz)</text>
  <text transform="rotate(-90 25 247.5)" x="25" y="247.5" text-anchor="middle" font-size="13" font-family="Arial,sans-serif" fill="#222">η (Wirkungsgrad)</text>
  <polyline points="120.35,296.46 235.17,213.02 305.25,181.28 353.35,152.65 415.58,130.19 472.37,109.71 542.22,83.02 571.19,74.43 591.85,75.20" fill="none" stroke="#1f77b4" stroke-width="1.8" clip-path="url(#plotarea)"/>
  <circle cx="120.35" cy="296.46" r="4" fill="#1f77b4" stroke="white" stroke-width="1" clip-path="url(#plotarea)"/>
  <circle cx="235.17" cy="213.02" r="4" fill="#1f77b4" stroke="white" stroke-width="1" clip-path="url(#plotarea)"/>
  <circle cx="305.25" cy="181.28" r="4" fill="#1f77b4" stroke="white" stroke-width="1" clip-path="url(#plotarea)"/>
  <circle cx="353.35" cy="152.65" r="4" fill="#1f77b4" stroke="white" stroke-width="1" clip-path="url(#plotarea)"/>
  <circle cx="415.58" cy="130.19" r="4" fill="#1f77b4" stroke="white" stroke-width="1" clip-path="url(#plotarea)"/>
  <circle cx="472.37" cy="109.71" r="4" fill="#1f77b4" stroke="white" stroke-width="1" clip-path="url(#plotarea)"/>
  <circle cx="542.22" cy="83.02" r="4" fill="#1f77b4" stroke="white" stroke-width="1" clip-path="url(#plotarea)"/>
  <circle cx="571.19" cy="74.43" r="4" fill="#1f77b4" stroke="white" stroke-width="1" clip-path="url(#plotarea)"/>
  <circle cx="591.85" cy="75.20" r="4" fill="#1f77b4" stroke="white" stroke-width="1" clip-path="url(#plotarea)"/>
  <polyline points="235.17,182.02 305.25,154.60 353.35,121.38 415.58,81.05 472.37,42.32 542.22,43.83 571.19,59.35 591.85,61.61" fill="none" stroke="#ff7f0e" stroke-width="1.8" clip-path="url(#plotarea)"/>
  <circle cx="235.17" cy="182.02" r="4" fill="#ff7f0e" stroke="white" stroke-width="1" clip-path="url(#plotarea)"/>
  <circle cx="305.25" cy="154.60" r="4" fill="#ff7f0e" stroke="white" stroke-width="1" clip-path="url(#plotarea)"/>
  <circle cx="353.35" cy="121.38" r="4" fill="#ff7f0e" stroke="white" stroke-width="1" clip-path="url(#plotarea)"/>
  <circle cx="415.58" cy="81.05" r="4" fill="#ff7f0e" stroke="white" stroke-width="1" clip-path="url(#plotarea)"/>
  <circle cx="472.37" cy="42.32" r="4" fill="#ff7f0e" stroke="white" stroke-width="1" clip-path="url(#plotarea)"/>
  <circle cx="542.22" cy="43.83" r="4" fill="#ff7f0e" stroke="white" stroke-width="1" clip-path="url(#plotarea)"/>
  <circle cx="571.19" cy="59.35" r="4" fill="#ff7f0e" stroke="white" stroke-width="1" clip-path="url(#plotarea)"/>
  <circle cx="591.85" cy="61.61" r="4" fill="#ff7f0e" stroke="white" stroke-width="1" clip-path="url(#plotarea)"/>
  <line x1="648" y1="57" x2="673" y2="57" stroke="#1f77b4" stroke-width="2"/>
  <circle cx="660" cy="57" r="4" fill="#1f77b4" stroke="white" stroke-width="1"/>
  <text x="680" y="61" font-size="11" font-family="Arial,sans-serif" fill="#333">Selfmade Tubby indoor HB9ISP</text>
  <line x1="648" y1="79" x2="673" y2="79" stroke="#ff7f0e" stroke-width="2"/>
  <circle cx="660" cy="79" r="4" fill="#ff7f0e" stroke="white" stroke-width="1"/>
  <text x="680" y="83" font-size="11" font-family="Arial,sans-serif" fill="#333">Selfmade Tubby outdoor HB9ISP</text>
</svg>